<?xml version="1.0" encoding="utf-8"?>
<!-- Generator: Adobe Illustrator 28.2.0, SVG Export Plug-In . SVG Version: 6.00 Build 0)  -->
<svg version="1.1" id="圖層_1" xmlns="http://www.w3.org/2000/svg" xmlns:xlink="http://www.w3.org/1999/xlink" x="0px" y="0px"
	 viewBox="0 0 16 16" style="enable-background:new 0 0 16 16;" xml:space="preserve">
<style type="text/css">
	.st0{fill:#FFFFFF;}
</style>
<path class="st0" d="M14.7,0.7c-0.7-0.7-1.8-0.7-2.5,0l-0.9,0.9l3.1,3.1l0.9-0.9C16,3,16,1.9,15.3,1.3L14.7,0.7z M5.4,7.6
	C5.2,7.7,5,8,5,8.2L4,11c-0.1,0.3,0,0.6,0.2,0.8S4.7,12.1,5,12L7.8,11C8,11,8.3,10.8,8.4,10.6l5.2-5.2l-3.1-3.1L5.4,7.6z M3,2
	C1.3,2,0,3.3,0,5v8c0,1.7,1.3,3,3,3h8c1.7,0,3-1.3,3-3v-3c0-0.6-0.4-1-1-1s-1,0.4-1,1v3c0,0.6-0.4,1-1,1H3c-0.6,0-1-0.4-1-1V5
	c0-0.6,0.4-1,1-1h3c0.6,0,1-0.4,1-1S6.6,2,6,2H3z"/>
</svg>
