<?xml version="1.0" encoding="utf-8"?>
<!-- Generator: Adobe Illustrator 28.2.0, SVG Export Plug-In . SVG Version: 6.00 Build 0)  -->
<svg version="1.1" id="圖層_1" xmlns="http://www.w3.org/2000/svg" xmlns:xlink="http://www.w3.org/1999/xlink" x="0px" y="0px"
	 viewBox="0 0 13.9 16" style="enable-background:new 0 0 13.9 16;" xml:space="preserve">
<style type="text/css">
	.st0{fill:#FFFFFF;}
</style>
<g>
	<path class="st0" d="M4.3,0.4L4,0.9H1c-0.5,0-1,0.4-1,1s0.4,1,1,1h11.9c0.5,0,1-0.4,1-1s-0.4-1-1-1h-3L9.7,0.5C9.5,0.2,9.2,0,8.8,0
		H5.1C4.8-0.1,4.4,0.1,4.3,0.4z M12.8,3.9H1.1l0.7,10.7c0,0.8,0.7,1.4,1.5,1.4h7.6c0.8,0,1.4-0.6,1.5-1.4L12.8,3.9z"/>
</g>
</svg>
